<svg xmlns="http://www.w3.org/2000/svg" viewBox="0 0 703.6 621" enable-background="new 0 0 703.6 621"><path fill="#3C3C3B" d="M677.9 31.9h-40.7v17.3c0 10.5-8.6 19.1-19.1 19.1h-2c-10.5 0-19.1-8.6-19.1-19.1v-17.3h-86v17.3c0 10.5-8.6 19.1-19.1 19.1h-2c-10.5 0-19.1-8.6-19.1-19.1v-17.3h-41.2c-10.5 0-19.1 8.6-19.1 19.1v30.5h286.5v-30.5c0-10.5-8.6-19.1-19.1-19.1z"/><path fill="#F5F5F7" d="M491.8 0h-2c-6 0-10.9 4.9-10.9 10.9v38.2c0 6 4.9 10.9 10.9 10.9h2c6 0 10.9-4.9 10.9-10.9v-38.2c0-6-4.9-10.9-10.9-10.9zM618.1 0h-2c-6 0-10.9 4.9-10.9 10.9v38.2c0 6 4.9 10.9 10.9 10.9h2c6 0 10.9-4.9 10.9-10.9v-38.2c0-6-4.9-10.9-10.9-10.9z"/><circle fill="#F5F5F7" cx="635.4" cy="232.1" r="68.3"/><path fill="#A4A4A8" d="M410.3 81.5v15.8c5.4-2.6 11.1-4.6 17.3-6.1 7.5-1.8 15.8-2.7 25-2.7 12.2 0 22.9 2.2 32.2 6.7 5.6 2.7 10.4 6 14.5 9.9 2.7 2.6 5.1 5.5 7.2 8.7 5.1 8 7.7 17.1 7.7 27.4 0 1.3 0 2.6-.1 3.9-.4 7.5-1.9 14.6-4.6 21.3-3.1 7.8-8 15.9-14.6 24.1-6.6 8.2-18.2 20-34.9 35.3l-25 23.5v1.9h84.7v29.8h57c-11.1-13.3-17.7-30.3-17.7-49 0-42.2 34.2-76.5 76.5-76.5 25.3 0 47.7 12.3 61.7 31.2v-105.2h-286.9zM460.8 177c4.4-5.7 7.6-11 9.6-15.9s2.9-9.9 2.9-15.2c0-7.8-2.2-13.6-6.5-17.4-4.3-3.8-10-5.7-17.2-5.7-7.5 0-14.9 1.7-22 5.2-5.6 2.7-11.4 6.4-17.4 10.9v91.3l22.2-22.4c14.5-14.8 24-25.1 28.4-30.8z"/><path fill="#1A1A1A" d="M434.9 251.2v-1.9l25-23.5c16.7-15.3 28.3-27 34.9-35.3 6.6-8.2 11.5-16.3 14.6-24.1 2.7-6.7 4.2-13.8 4.6-21.3.1-1.3.1-2.6.1-3.9 0-10.3-2.6-19.4-7.7-27.4-2.1-3.2-4.5-6.1-7.2-8.7-4.1-3.9-8.9-7.3-14.5-9.9-9.3-4.4-20-6.7-32.2-6.7-9.2 0-17.6.9-25 2.7-6.1 1.5-11.9 3.5-17.3 6.1v41.6c6-4.6 11.8-8.2 17.4-10.9 7.1-3.5 14.4-5.2 22-5.2 7.2 0 12.9 1.9 17.2 5.7 4.3 3.8 6.5 9.6 6.5 17.4 0 5.2-1 10.3-2.9 15.2-2 4.9-5.1 10.2-9.6 15.9-4.4 5.7-13.9 16-28.3 30.8l-22.2 22.4v31.7c0 10.5 8.6 19.1 19.1 19.1h90.2v-29.9h-84.7z"/><path fill="#F5F5F7" d="M506.4 113.8c5.1 8 7.7 17.1 7.7 27.4 0 1.3 0 2.6-.1 3.9h183v-40h-197.7c2.7 2.6 5.1 5.5 7.1 8.7z"/><g fill="#A4A4A8"><path d="M532.2 126h13.4v16.6c-3.5 1.5-7.5 2.2-11.9 2.2-5.8 0-10.2-1.6-13.2-4.9-3.1-3.3-4.6-7.9-4.6-13.8 0-3.7.8-7 2.3-9.9 1.5-2.9 3.7-5.1 6.5-6.6 2.8-1.6 6.1-2.3 9.8-2.3 4 0 7.5.7 10.7 2.2l-1 2.3c-3.2-1.5-6.4-2.2-9.8-2.2-4.8 0-8.6 1.5-11.4 4.5s-4.2 7-4.2 12c0 5.5 1.3 9.6 4 12.4 2.7 2.8 6.6 4.2 11.8 4.2 3.4 0 6.2-.5 8.6-1.4v-12.8h-10.9v-2.5zM556.3 117.3v17.6c0 2.7.6 4.7 1.7 5.9 1.1 1.2 2.9 1.9 5.3 1.9 3.2 0 5.6-.8 7.1-2.4s2.3-4.3 2.3-8v-15h2.4v27.1h-2.1l-.4-3.7h-.1c-1.8 2.8-4.9 4.2-9.4 4.2-6.2 0-9.3-3.3-9.3-9.9v-17.7h2.5zM582.4 113c1.2-1.3 2.4-2.7 3.6-4.3 1.2-1.5 2-2.7 2.4-3.5h3.5v.4c-.6.9-1.6 2-3.1 3.4s-3 2.9-4.8 4.3h-1.7v-.3zm4.4 31.4h-2.5v-27.1h2.5v27.1zM612.3 144.4l-.6-4.3h-.2c-1.4 1.7-2.8 3-4.2 3.7s-3.1 1.1-5.1 1.1c-2.7 0-4.7-.7-6.2-2-1.5-1.4-2.2-3.3-2.2-5.7 0-2.6 1.1-4.7 3.3-6.2 2.2-1.5 5.4-2.2 9.6-2.3l5.2-.1v-1.8c0-2.6-.5-4.5-1.6-5.8-1-1.3-2.7-2-5.1-2-2.5 0-5.1.7-7.8 2.1l-.9-2.1c3-1.4 5.9-2.1 8.8-2.1 3 0 5.2.8 6.7 2.3 1.5 1.5 2.2 4 2.2 7.2v18h-1.9zm-9.9-1.8c2.9 0 5.2-.8 6.8-2.5 1.7-1.7 2.5-4 2.5-6.9v-2.7l-4.7.2c-3.8.2-6.5.8-8.1 1.8-1.6 1-2.4 2.6-2.4 4.7 0 1.7.5 3 1.6 4 .9 1 2.4 1.4 4.3 1.4z"/></g><g fill="#F5F5F7"><path d="M508.1 249.3h-13.4v-25.9c0-3.1.1-6 .2-8.6-.8 1-1.8 2-3.1 3.1l-5.5 4.6-6.9-8.4 16.8-13.7h11.9v48.9zM554.4 225c0 8.6-1.4 15-4.3 19s-7.3 6-13.3 6c-5.8 0-10.2-2.1-13.2-6.3-3-4.2-4.4-10.4-4.4-18.7 0-8.7 1.4-15.1 4.3-19.1 2.9-4.1 7.3-6.1 13.3-6.1 5.8 0 10.2 2.1 13.2 6.3 2.9 4.2 4.4 10.5 4.4 18.9zm-22.2 0c0 5.5.3 9.3 1 11.4.7 2.1 1.8 3.1 3.5 3.1 1.6 0 2.8-1.1 3.5-3.2.7-2.1 1-5.9 1-11.3s-.3-9.2-1-11.4c-.7-2.2-1.8-3.3-3.5-3.3-1.6 0-2.8 1-3.5 3.1-.6 2.2-1 6-1 11.6z"/></g><g fill="#F5F5F7"><path d="M442.9 264.8c0 1.7-.6 2.9-1.7 3.8-1.2.9-2.9 1.3-5.2 1.3-1.2 0-2.2-.1-3-.2s-1.6-.4-2.3-.7v-3.7c.8.4 1.7.7 2.8 1 1 .3 1.9.4 2.7.4 1.6 0 2.4-.5 2.4-1.4 0-.3-.1-.6-.3-.8s-.6-.5-1.1-.7c-.5-.3-1.2-.6-2.1-1-1.2-.5-2.2-1-2.7-1.4s-1-1-1.3-1.5c-.3-.6-.4-1.3-.4-2.1 0-1.4.6-2.6 1.7-3.3 1.1-.8 2.7-1.2 4.7-1.2s3.9.4 5.7 1.3l-1.3 3.2c-.8-.3-1.6-.6-2.3-.9-.7-.2-1.4-.3-2.2-.3-1.3 0-2 .4-2 1.1 0 .4.2.7.6 1 .4.3 1.3.7 2.8 1.3 1.3.5 2.2 1 2.8 1.4.6.4 1 1 1.3 1.5.3.4.4 1.1.4 1.9zM453.7 269.9c-2.6 0-4.6-.7-6.1-2.2s-2.2-3.5-2.2-6.1c0-2.7.7-4.8 2-6.3 1.4-1.5 3.2-2.2 5.6-2.2 2.3 0 4.1.7 5.3 2 1.3 1.3 1.9 3.1 1.9 5.4v2.1h-10.5c0 1.3.4 2.2 1.1 2.9.7.7 1.7 1.1 2.9 1.1 1 0 1.9-.1 2.8-.3s1.8-.5 2.7-1v3.4c-.8.4-1.6.7-2.5.9-.6.2-1.7.3-3 .3zm-.6-13.6c-.9 0-1.7.3-2.2.9s-.8 1.4-.9 2.5h6.2c0-1.1-.3-1.9-.9-2.5-.5-.6-1.3-.9-2.2-.9zM478.4 269.6h-4.4v-9.5c0-1.2-.2-2-.6-2.6-.4-.6-1-.9-1.8-.9-1.1 0-2 .4-2.5 1.2-.5.8-.8 2.2-.8 4.1v7.6h-4.4v-16.2h3.4l.6 2.1h.2c.4-.7 1.1-1.3 1.9-1.7s1.8-.6 2.8-.6c2.4 0 4.1.8 4.9 2.4h.4c.4-.8 1.1-1.3 1.9-1.8.8-.4 1.8-.6 2.9-.6 1.8 0 3.2.5 4.2 1.4.9.9 1.4 2.5 1.4 4.5v10.6h-4.4v-9.5c0-1.2-.2-2-.6-2.6-.4-.6-1-.9-1.8-.9-1.1 0-1.9.4-2.4 1.2-.5.8-.8 2-.8 3.7v8.1zM503.4 269.6l-.9-2.2h-.1c-.7.9-1.5 1.6-2.3 2-.8.4-1.8.5-3.1.5-1.6 0-2.8-.4-3.7-1.3-.9-.9-1.3-2.2-1.3-3.8 0-1.7.6-3 1.8-3.8s3-1.3 5.4-1.4l2.8-.1v-.7c0-1.6-.8-2.5-2.5-2.5-1.3 0-2.8.4-4.6 1.2l-1.5-3c1.9-1 3.9-1.5 6.2-1.5 2.2 0 3.8.5 5 1.4 1.2.9 1.7 2.4 1.7 4.3v10.8h-2.9zm-1.3-7.5l-1.7.1c-1.3 0-2.2.3-2.9.7s-.9 1.1-.9 1.9c0 1.2.7 1.9 2.1 1.9 1 0 1.8-.3 2.5-.9.6-.6.9-1.4.9-2.3v-1.4zM526 269.6h-4.4v-9.5c0-1.2-.2-2-.6-2.6-.4-.6-1.1-.9-2-.9-1.2 0-2.1.4-2.7 1.2-.6.8-.8 2.2-.8 4.1v7.6h-4.5v-16.2h3.4l.6 2.1h.2c.5-.8 1.2-1.4 2-1.8.9-.4 1.8-.6 3-.6 1.9 0 3.3.5 4.3 1.5s1.5 2.5 1.5 4.4v10.7zM540.8 269.6l-.9-2.2h-.1c-.7.9-1.5 1.6-2.3 2-.8.4-1.8.5-3.1.5-1.6 0-2.8-.4-3.7-1.3-.9-.9-1.3-2.2-1.3-3.8 0-1.7.6-3 1.8-3.8s3-1.3 5.4-1.4l2.8-.1v-.7c0-1.6-.8-2.5-2.5-2.5-1.3 0-2.8.4-4.6 1.2l-1.5-3c1.9-1 3.9-1.5 6.2-1.5 2.2 0 3.8.5 5 1.4 1.2.9 1.7 2.4 1.7 4.3v10.8h-2.9zm-1.3-7.5l-1.7.1c-1.3 0-2.2.3-2.9.7s-.9 1.1-.9 1.9c0 1.2.7 1.9 2.1 1.9 1 0 1.8-.3 2.5-.9.6-.6.9-1.4.9-2.3v-1.4zM559.8 264.8c0 1.7-.6 2.9-1.7 3.8-1.2.9-2.9 1.3-5.2 1.3-1.2 0-2.2-.1-3-.2s-1.6-.4-2.3-.7v-3.7c.8.4 1.7.7 2.8 1 1 .3 1.9.4 2.7.4 1.6 0 2.4-.5 2.4-1.4 0-.3-.1-.6-.3-.8s-.6-.5-1.1-.7c-.5-.3-1.2-.6-2.1-1-1.2-.5-2.2-1-2.7-1.4s-1-1-1.3-1.5c-.3-.6-.4-1.3-.4-2.1 0-1.4.6-2.6 1.7-3.3 1.1-.8 2.7-1.2 4.7-1.2s3.9.4 5.7 1.3l-1.3 3.2c-.8-.3-1.6-.6-2.3-.9-.7-.2-1.4-.3-2.2-.3-1.3 0-2 .4-2 1.1 0 .4.2.7.6 1 .4.3 1.3.7 2.8 1.3 1.3.5 2.2 1 2.8 1.4.6.4 1 1 1.3 1.5.2.4.4 1.1.4 1.9z"/></g><ellipse fill="#585558" cx="636.6" cy="240.2" rx="35.9" ry="35.8"/><ellipse fill="#C6C5C8" cx="636.6" cy="237.8" rx="35.9" ry="36"/><ellipse fill="#A9A9AC" cx="636.6" cy="237.8" rx="31.8" ry="31.9"/><ellipse fill="#fff" cx="636.6" cy="238.9" rx="31.8" ry="30.7"/><path fill="#C6C5C8" d="M636.5 174.8c-7.2 0-13 5.8-13 13s5.8 13 13 13 13-5.8 13-13-5.8-13-13-13zm-.1 24.3c-6.3 0-11.3-5.1-11.3-11.4 0-6.3 5.1-11.4 11.3-11.4 6.3 0 11.3 5.1 11.3 11.4 0 6.3-5 11.4-11.3 11.4z"/><path fill="#A9A9AC" d="M633.4 195.7h6v6h-6z"/><path fill="#C6C5C8" d="M629.7 190.4h13.4v5.2h-13.4z"/><ellipse fill="#706E72" cx="636.6" cy="238.1" rx="1.8" ry="1.8"/><ellipse fill="#9E9DA0" cx="636.6" cy="237.7" rx="1.8" ry="1.8"/><g><path fill="#A9A9AC" d="M606.546 210.452l4.03-4.03 3.253 3.253-4.03 4.03z"/><path fill="#C6C5C8" d="M602.612 208.602l6.081-6.081 3.253 3.253-6.081 6.081z"/></g><g><path fill="#A9A9AC" d="M663.167 213.801l-4.03-4.03 3.253-3.253 4.03 4.03z"/><path fill="#C6C5C8" d="M667.171 211.917l-6.081-6.081 3.253-3.253 6.081 6.081z"/></g><path stroke="#9F9EA2" stroke-width="6" stroke-miterlimit="10" fill="none" d="M636.4 238.2v-28.4"/><path fill="#A4A4A8" d="M267.6 31.9h-40.7v17.3c0 10.5-8.6 19.1-19.1 19.1h-2c-10.5 0-19.1-8.6-19.1-19.1v-17.3h-86v17.3c0 10.5-8.6 19.1-19.1 19.1h-2c-10.5 0-19.1-8.6-19.1-19.1v-17.3h-41.4c-10.5 0-19.1 8.6-19.1 19.1v30.5h286.7v-30.5c0-10.5-8.6-19.1-19.1-19.1z"/><path fill="#3C3C3B" d="M81.5 0h-2c-6 0-10.9 4.9-10.9 10.9v38.2c0 6 4.9 10.9 10.9 10.9h2c6 0 10.9-4.9 10.9-10.9v-38.2c0-6-4.9-10.9-10.9-10.9zM207.8 0h-2c-6 0-10.9 4.9-10.9 10.9v38.2c0 6 4.9 10.9 10.9 10.9h2c6 0 10.9-4.9 10.9-10.9v-38.2c0-6-4.9-10.9-10.9-10.9z"/><circle fill="#3C3C3B" cx="225.1" cy="232.1" r="68.3"/><path fill="#F5F5F7" d="M37.4 154.7l.7-20.2c-6.8 6.8-11.6 11.3-14.2 13.4l-22.4 18-1.5-1.8v97.8c0 10.5 8.6 19.1 19.1 19.1h17.9v-107.8l.4-18.5zM0 81.5v45.1l44.3-35.3h33.8v189.7h88.3c-11.1-13.3-17.7-30.3-17.7-49 0-42.2 34.2-76.5 76.5-76.5 25.3 0 47.7 12.3 61.7 31.2v-105.2h-286.9z"/><path fill="#A4A4A8" d="M44.3 91.3l-44.3 35.2v37.6l1.4 1.8 22.4-18c2.7-2.1 7.4-6.6 14.2-13.4l-.7 20.2-.3 18.5v107.8h41.1v-189.7h-33.8z"/><ellipse fill="#585558" cx="225.8" cy="240.2" rx="35.9" ry="35.8"/><ellipse fill="#C6C5C8" cx="225.8" cy="237.8" rx="35.9" ry="36"/><ellipse fill="#A9A9AC" cx="225.8" cy="237.8" rx="31.8" ry="31.9"/><ellipse fill="#fff" cx="225.8" cy="238.9" rx="31.8" ry="30.7"/><path fill="#C6C5C8" d="M225.7 174.8c-7.2 0-13 5.8-13 13s5.8 13 13 13 13-5.8 13-13-5.8-13-13-13zm-.1 24.3c-6.3 0-11.3-5.1-11.3-11.4 0-6.3 5.1-11.4 11.3-11.4 6.3 0 11.3 5.1 11.3 11.4.1 6.3-5 11.4-11.3 11.4z"/><path fill="#A9A9AC" d="M222.6 195.7h6v6h-6z"/><path fill="#C6C5C8" d="M218.9 190.4h13.4v5.2h-13.4z"/><ellipse fill="#706E72" cx="225.8" cy="238.1" rx="1.8" ry="1.8"/><ellipse fill="#9E9DA0" cx="225.8" cy="237.7" rx="1.8" ry="1.8"/><g><path fill="#A9A9AC" d="M195.763 210.472l4.03-4.03 3.253 3.253-4.03 4.03z"/><path fill="#C6C5C8" d="M191.823 208.617l6.081-6.081 3.253 3.253-6.081 6.081z"/></g><g><path fill="#A9A9AC" d="M252.396 213.819l-4.03-4.03 3.253-3.253 4.03 4.03z"/><path fill="#C6C5C8" d="M256.405 211.93l-6.081-6.081 3.253-3.253 6.081 6.081z"/></g><path stroke="#9F9EA2" stroke-width="6" stroke-miterlimit="10" fill="none" d="M225.6 238.2v-28.4"/><g fill="#3C3C3B"><path d="M97.8 249.3h-13.4v-25.9c0-3.1.1-6 .2-8.6-.8 1-1.8 2-3.1 3.1l-5.5 4.6-6.9-8.4 16.8-13.7h11.9v48.9zM144.1 225c0 8.6-1.4 15-4.3 19s-7.3 6-13.3 6c-5.8 0-10.2-2.1-13.2-6.3-3-4.2-4.4-10.4-4.4-18.7 0-8.7 1.4-15.1 4.3-19.1 2.9-4.1 7.3-6.1 13.3-6.1 5.8 0 10.2 2.1 13.2 6.3 2.9 4.2 4.4 10.5 4.4 18.9zm-22.2 0c0 5.5.3 9.3 1 11.4.7 2.1 1.8 3.1 3.5 3.1 1.6 0 2.8-1.1 3.5-3.2.7-2.1 1-5.9 1-11.3s-.3-9.2-1-11.4c-.7-2.2-1.8-3.3-3.5-3.3-1.6 0-2.8 1-3.5 3.1-.6 2.2-1 6-1 11.6z"/></g><g fill="#3C3C3B"><path d="M32.6 264.8c0 1.7-.6 2.9-1.7 3.8-1.2.9-2.9 1.3-5.2 1.3-1.2 0-2.2-.1-3-.2s-1.6-.4-2.3-.7v-3.7c.8.4 1.7.7 2.8 1 1 .3 1.9.4 2.7.4 1.6 0 2.4-.5 2.4-1.4 0-.3-.1-.6-.3-.8s-.6-.5-1.1-.7c-.5-.3-1.2-.6-2.1-1-1.2-.5-2.2-1-2.7-1.4s-1-1-1.3-1.5c-.3-.6-.4-1.3-.4-2.1 0-1.4.6-2.6 1.7-3.3 1.1-.8 2.7-1.2 4.7-1.2s3.9.4 5.7 1.3l-1.3 3.2c-.8-.3-1.6-.6-2.3-.9-.7-.2-1.4-.3-2.2-.3-1.3 0-2 .4-2 1.1 0 .4.2.7.6 1 .4.3 1.3.7 2.8 1.3 1.3.5 2.2 1 2.8 1.4.6.4 1 1 1.3 1.5.3.4.4 1.1.4 1.9zM43.4 269.9c-2.6 0-4.6-.7-6.1-2.2s-2.2-3.5-2.2-6.1c0-2.7.7-4.8 2-6.3 1.4-1.5 3.2-2.2 5.6-2.2 2.3 0 4.1.7 5.3 2 1.3 1.3 1.9 3.1 1.9 5.4v2.1h-10.3c0 1.3.4 2.2 1.1 2.9.7.7 1.7 1.1 2.9 1.1 1 0 1.9-.1 2.8-.3s1.8-.5 2.7-1v3.4c-.8.4-1.6.7-2.5.9-.8.2-1.9.3-3.2.3zm-.6-13.6c-.9 0-1.7.3-2.2.9s-.8 1.4-.9 2.5h6.2c0-1.1-.3-1.9-.9-2.5-.5-.6-1.3-.9-2.2-.9zM68.1 269.6h-4.4v-9.5c0-1.2-.2-2-.6-2.6-.4-.6-1-.9-1.8-.9-1.1 0-2 .4-2.5 1.2-.5.8-.8 2.2-.8 4.1v7.6h-4.4v-16.2h3.4l.6 2.1h.2c.4-.7 1.1-1.3 1.9-1.7s1.8-.6 2.8-.6c2.4 0 4.1.8 4.9 2.4h.4c.4-.8 1.1-1.3 1.9-1.8.8-.4 1.8-.6 2.9-.6 1.8 0 3.2.5 4.2 1.4.9.9 1.4 2.5 1.4 4.5v10.6h-4.4v-9.5c0-1.2-.2-2-.6-2.6-.4-.6-1-.9-1.8-.9-1.1 0-1.9.4-2.4 1.2-.5.8-.8 2-.8 3.7v8.1zM93.1 269.6l-.9-2.2h-.1c-.7.9-1.5 1.6-2.3 2-.8.4-1.8.5-3.1.5-1.6 0-2.8-.4-3.7-1.3-.9-.9-1.3-2.2-1.3-3.8 0-1.7.6-3 1.8-3.8s3-1.3 5.4-1.4l2.8-.1v-.7c0-1.6-.8-2.5-2.5-2.5-1.3 0-2.8.4-4.6 1.2l-1.5-3c1.9-1 3.9-1.5 6.2-1.5 2.2 0 3.8.5 5 1.4 1.2.9 1.7 2.4 1.7 4.3v10.8h-2.9zm-1.3-7.5l-1.7.1c-1.3 0-2.2.3-2.9.7s-.9 1.1-.9 1.9c0 1.2.7 1.9 2.1 1.9 1 0 1.8-.3 2.5-.9.6-.6.9-1.4.9-2.3v-1.4zM115.7 269.6h-4.4v-9.5c0-1.2-.2-2-.6-2.6-.4-.6-1.1-.9-2-.9-1.2 0-2.1.4-2.7 1.2-.6.8-.8 2.2-.8 4.1v7.6h-4.4v-16.2h3.4l.6 2.1h.2c.5-.8 1.2-1.4 2-1.8.9-.4 1.8-.6 3-.6 1.9 0 3.3.5 4.3 1.5s1.5 2.5 1.5 4.4v10.7zM130.5 269.6l-.9-2.2h-.1c-.7.9-1.5 1.6-2.3 2-.8.4-1.8.5-3.1.5-1.6 0-2.8-.4-3.7-1.3-.9-.9-1.3-2.2-1.3-3.8 0-1.7.6-3 1.8-3.8s3-1.3 5.4-1.4l2.8-.1v-.7c0-1.6-.8-2.5-2.5-2.5-1.3 0-2.8.4-4.6 1.2l-1.5-3c1.9-1 3.9-1.5 6.2-1.5 2.2 0 3.8.5 5 1.4 1.2.9 1.7 2.4 1.7 4.3v10.8h-2.9zm-1.3-7.5l-1.7.1c-1.3 0-2.2.3-2.9.7s-.9 1.1-.9 1.9c0 1.2.7 1.9 2.1 1.9 1 0 1.8-.3 2.5-.9.6-.6.9-1.4.9-2.3v-1.4zM149.5 264.8c0 1.7-.6 2.9-1.7 3.8-1.2.9-2.9 1.3-5.2 1.3-1.2 0-2.2-.1-3-.2s-1.6-.4-2.3-.7v-3.7c.8.4 1.7.7 2.8 1 1 .3 1.9.4 2.7.4 1.6 0 2.4-.5 2.4-1.4 0-.3-.1-.6-.3-.8s-.6-.5-1.1-.7c-.5-.3-1.2-.6-2.1-1-1.2-.5-2.2-1-2.7-1.4s-1-1-1.3-1.5c-.3-.6-.4-1.3-.4-2.1 0-1.4.6-2.6 1.7-3.3 1.1-.8 2.7-1.2 4.7-1.2s3.9.4 5.7 1.3l-1.3 3.2c-.8-.3-1.6-.6-2.3-.9-.7-.2-1.4-.3-2.2-.3-1.3 0-2 .4-2 1.1 0 .4.2.7.6 1 .4.3 1.3.7 2.8 1.3 1.3.5 2.2 1 2.8 1.4.6.4 1 1 1.3 1.5.2.4.4 1.1.4 1.9z"/></g><path fill="#3C3C3B" d="M78.1 105.1h208.7v40h-208.7z"/><g fill="#fff"><path d="M97.6 126h13.4v16.6c-3.5 1.5-7.5 2.2-11.9 2.2-5.8 0-10.2-1.6-13.2-4.9-3.1-3.3-4.6-7.9-4.6-13.8 0-3.7.8-7 2.3-9.9 1.5-2.9 3.7-5.1 6.5-6.6 2.8-1.6 6.1-2.3 9.8-2.3 4 0 7.5.7 10.7 2.2l-1 2.3c-3.2-1.5-6.4-2.2-9.8-2.2-4.8 0-8.6 1.5-11.4 4.5s-4.2 7-4.2 12c0 5.5 1.3 9.6 4 12.4 2.7 2.8 6.6 4.2 11.8 4.2 3.4 0 6.2-.5 8.6-1.4v-12.8h-11v-2.5zM121.7 117.3v17.6c0 2.7.6 4.7 1.7 5.9 1.1 1.2 2.9 1.9 5.3 1.9 3.2 0 5.6-.8 7.1-2.4s2.3-4.3 2.3-8v-15h2.4v27.1h-2.1l-.4-3.7h-.1c-1.8 2.8-4.9 4.2-9.4 4.2-6.2 0-9.3-3.3-9.3-9.9v-17.7h2.5zM147.8 113c1.2-1.3 2.4-2.7 3.6-4.3 1.2-1.5 2-2.7 2.4-3.5h3.5v.4c-.6.9-1.6 2-3.1 3.4s-3 2.9-4.8 4.3h-1.7v-.3zm4.4 31.4h-2.5v-27.1h2.5v27.1zM177.7 144.4l-.6-4.3h-.2c-1.4 1.7-2.8 3-4.2 3.7s-3.1 1.1-5.1 1.1c-2.7 0-4.7-.7-6.2-2-1.5-1.4-2.2-3.3-2.2-5.7 0-2.6 1.1-4.7 3.3-6.2 2.2-1.5 5.4-2.2 9.6-2.3l5.2-.1v-1.8c0-2.6-.5-4.5-1.6-5.8-1-1.3-2.7-2-5.1-2-2.5 0-5.1.7-7.8 2.1l-.9-2.1c3-1.4 5.9-2.1 8.8-2.1 3 0 5.2.8 6.7 2.3 1.5 1.5 2.2 4 2.2 7.2v18h-1.9zm-10-1.8c2.9 0 5.2-.8 6.8-2.5 1.7-1.7 2.5-4 2.5-6.9v-2.7l-4.7.2c-3.8.2-6.5.8-8.1 1.8-1.6 1-2.4 2.6-2.4 4.7 0 1.7.5 3 1.6 4 1 1 2.4 1.4 4.3 1.4z"/></g><path fill="#A4A4A8" d="M677.9 352.5h-40.7v17.3c0 10.5-8.6 19.1-19.1 19.1h-2c-10.5 0-19.1-8.6-19.1-19.1v-17.3h-86v17.3c0 10.5-8.6 19.1-19.1 19.1h-2c-10.5 0-19.1-8.6-19.1-19.1v-17.3h-41.2c-10.5 0-19.1 8.6-19.1 19.1v30.5h286.5v-30.5c0-10.5-8.6-19.1-19.1-19.1z"/><path fill="#3C3C3B" d="M491.8 320.7h-2c-6 0-10.9 4.9-10.9 10.9v38.2c0 6 4.9 10.9 10.9 10.9h2c6 0 10.9-4.9 10.9-10.9v-38.2c0-6-4.9-10.9-10.9-10.9zM618.1 320.7h-2c-6 0-10.9 4.9-10.9 10.9v38.2c0 6 4.9 10.9 10.9 10.9h2c6 0 10.9-4.9 10.9-10.9v-38.2c0-6-4.9-10.9-10.9-10.9z"/><circle fill="#3C3C3B" cx="635.4" cy="552.8" r="68.3"/><path fill="#F5F5F7" d="M410.3 402.1v180.50000000000003c0 10.5 8.6 19.1 19.1 19.1h147.3c-11.1-13.3-17.7-30.3-17.7-49 0-42.2 34.2-76.5 76.5-76.5 25.3 0 47.7 12.3 61.7 31.2v-105.3h-286.9z"/><path fill="#A4A4A8" d="M524 565.4v-31.9h-23.4v-122.3h-37.9l-52.4 77.1v77.1h50.1v36.3h40.2v-36.3h23.4zm-62.9-88.9c-.4 10.5-.7 18.4-.7 23.9v33h-46.8l35.7-53.9c4.6-6.9 8.6-14 11.8-21.3h1.1c-.3 1.8-.7 7.9-1.1 18.3z"/><path fill="#3C3C3B" d="M500.6 425.7h196.4v40h-196.4z"/><g fill="#A4A4A8"><path d="M532.2 446.6h13.4v16.6c-3.5 1.5-7.5 2.2-11.9 2.2-5.8 0-10.2-1.6-13.2-4.9-3.1-3.3-4.6-7.9-4.6-13.8 0-3.7.8-7 2.3-9.9s3.7-5.1 6.5-6.6c2.8-1.6 6.1-2.3 9.8-2.3 4 0 7.5.7 10.7 2.2l-1 2.3c-3.2-1.5-6.4-2.2-9.8-2.2-4.8 0-8.6 1.5-11.4 4.5s-4.2 7-4.2 12c0 5.5 1.3 9.6 4 12.4 2.7 2.8 6.6 4.2 11.8 4.2 3.4 0 6.2-.5 8.6-1.4v-12.9h-10.9v-2.4zM556.3 437.9v17.6c0 2.7.6 4.7 1.7 6 1.1 1.2 2.9 1.9 5.3 1.9 3.2 0 5.6-.8 7.1-2.4s2.3-4.3 2.3-8v-15h2.4v27h-2.1l-.4-3.7h-.1c-1.8 2.8-4.9 4.2-9.4 4.2-6.2 0-9.3-3.3-9.3-9.9v-17.7h2.5zM582.4 433.7c1.2-1.3 2.4-2.7 3.6-4.3 1.2-1.5 2-2.7 2.4-3.5h3.5v.4c-.6.9-1.6 2-3.1 3.4s-3 2.9-4.8 4.3h-1.7v-.3zm4.4 31.3h-2.5v-27.1h2.5v27.1zM612.3 465l-.6-4.3h-.2c-1.4 1.7-2.8 3-4.2 3.7s-3.1 1.1-5.1 1.1c-2.7 0-4.7-.7-6.2-2-1.5-1.4-2.2-3.3-2.2-5.7 0-2.6 1.1-4.7 3.3-6.2 2.2-1.5 5.4-2.2 9.6-2.3l5.2-.1v-1.8c0-2.6-.5-4.5-1.6-5.8-1-1.3-2.7-2-5.1-2-2.5 0-5.1.7-7.8 2.1l-.9-2.1c3-1.4 5.9-2.1 8.8-2.1 3 0 5.2.8 6.7 2.3 1.5 1.5 2.2 4 2.2 7.2v18h-1.9zm-9.9-1.7c2.9 0 5.2-.8 6.8-2.5 1.7-1.7 2.5-4 2.5-6.9v-2.7l-4.7.2c-3.8.2-6.5.8-8.1 1.8-1.6 1-2.4 2.6-2.4 4.7 0 1.7.5 3 1.6 4 .9.9 2.4 1.4 4.3 1.4z"/></g><g fill="#3C3C3B"><path d="M508.1 570h-13.4v-25.9c0-3.1.1-6 .2-8.6-.8 1-1.8 2-3.1 3.1l-5.5 4.6-6.9-8.4 16.8-13.7h11.9v48.9zM554.4 545.6c0 8.6-1.4 15-4.3 19s-7.3 6-13.3 6c-5.8 0-10.2-2.1-13.2-6.3-3-4.2-4.4-10.4-4.4-18.7 0-8.7 1.4-15.1 4.3-19.1 2.9-4.1 7.3-6.1 13.3-6.1 5.8 0 10.2 2.1 13.2 6.3 2.9 4.3 4.4 10.6 4.4 18.9zm-22.2 0c0 5.5.3 9.3 1 11.4.7 2.1 1.8 3.1 3.5 3.1 1.6 0 2.8-1.1 3.5-3.2.7-2.1 1-5.9 1-11.3s-.3-9.2-1-11.4c-.7-2.2-1.8-3.3-3.5-3.3-1.6 0-2.8 1-3.5 3.1-.6 2.2-1 6.1-1 11.6z"/></g><g fill="#3C3C3B"><path d="M442.9 585.5c0 1.7-.6 2.9-1.7 3.8-1.2.9-2.9 1.3-5.2 1.3-1.2 0-2.2-.1-3-.2-.8-.2-1.6-.4-2.3-.7v-3.7c.8.4 1.7.7 2.8 1 1 .3 1.9.4 2.7.4 1.6 0 2.4-.5 2.4-1.4 0-.3-.1-.6-.3-.8-.2-.2-.6-.5-1.1-.7s-1.2-.6-2.1-1c-1.2-.5-2.2-1-2.7-1.4s-1-1-1.3-1.5c-.3-.6-.4-1.3-.4-2.1 0-1.4.6-2.6 1.7-3.3 1.1-.8 2.7-1.2 4.7-1.2s3.9.4 5.7 1.3l-1.3 3.2c-.8-.3-1.6-.6-2.3-.9-.7-.2-1.4-.3-2.2-.3-1.3 0-2 .4-2 1.1 0 .4.2.7.6 1 .4.3 1.3.7 2.8 1.3 1.3.5 2.2 1 2.8 1.4.6.4 1 1 1.3 1.5.3.4.4 1.1.4 1.9zM453.7 590.6c-2.6 0-4.6-.7-6.1-2.2-1.5-1.4-2.2-3.5-2.2-6.1 0-2.7.7-4.8 2-6.3 1.4-1.5 3.2-2.2 5.6-2.2 2.3 0 4.1.7 5.3 2 1.3 1.3 1.9 3.1 1.9 5.4v2.1h-10.5c0 1.3.4 2.2 1.1 2.9.7.7 1.7 1.1 2.9 1.1 1 0 1.9-.1 2.8-.3s1.8-.5 2.7-1v3.4c-.8.4-1.6.7-2.5.9-.6.2-1.7.3-3 .3zm-.6-13.7c-.9 0-1.7.3-2.2.9-.5.6-.8 1.4-.9 2.5h6.2c0-1.1-.3-1.9-.9-2.5-.5-.6-1.3-.9-2.2-.9zM478.4 590.3h-4.4v-9.5c0-1.2-.2-2-.6-2.6-.4-.6-1-.9-1.8-.9-1.1 0-2 .4-2.5 1.2-.5.8-.8 2.2-.8 4.1v7.6h-4.4v-16.2h3.4l.6 2.1h.2c.4-.7 1.1-1.3 1.9-1.7s1.8-.6 2.8-.6c2.4 0 4.1.8 4.9 2.4h.4c.4-.8 1.1-1.3 1.9-1.8.8-.4 1.8-.6 2.9-.6 1.8 0 3.2.5 4.2 1.4.9.9 1.4 2.5 1.4 4.5v10.6h-4.4v-9.5c0-1.2-.2-2-.6-2.6-.4-.6-1-.9-1.8-.9-1.1 0-1.9.4-2.4 1.2-.5.8-.8 2-.8 3.7v8.1zM503.4 590.3l-.9-2.2h-.1c-.7.9-1.5 1.6-2.3 2-.8.4-1.8.5-3.1.5-1.6 0-2.8-.4-3.7-1.3-.9-.9-1.3-2.2-1.3-3.8 0-1.7.6-3 1.8-3.8 1.2-.8 3-1.3 5.4-1.4l2.8-.1v-.7c0-1.6-.8-2.5-2.5-2.5-1.3 0-2.8.4-4.6 1.2l-1.5-3c1.9-1 3.9-1.5 6.2-1.5 2.2 0 3.8.5 5 1.4 1.2.9 1.7 2.4 1.7 4.3v10.8h-2.9zm-1.3-7.5l-1.7.1c-1.3 0-2.2.3-2.9.7s-.9 1.1-.9 1.9c0 1.2.7 1.9 2.1 1.9 1 0 1.8-.3 2.5-.9.6-.6.9-1.4.9-2.3v-1.4zM526 590.3h-4.4v-9.5c0-1.2-.2-2-.6-2.6-.4-.6-1.1-.9-2-.9-1.2 0-2.1.4-2.7 1.2s-.8 2.2-.8 4.1v7.6h-4.5v-16.2h3.4l.6 2.1h.2c.5-.8 1.2-1.4 2-1.8.9-.4 1.8-.6 3-.6 1.9 0 3.3.5 4.3 1.5s1.5 2.5 1.5 4.4v10.7zM540.8 590.3l-.9-2.2h-.1c-.7.9-1.5 1.6-2.3 2-.8.4-1.8.5-3.1.5-1.6 0-2.8-.4-3.7-1.3-.9-.9-1.3-2.2-1.3-3.8 0-1.7.6-3 1.8-3.8 1.2-.8 3-1.3 5.4-1.4l2.8-.1v-.7c0-1.6-.8-2.5-2.5-2.5-1.3 0-2.8.4-4.6 1.2l-1.5-3c1.9-1 3.9-1.5 6.2-1.5 2.2 0 3.8.5 5 1.4 1.2.9 1.7 2.4 1.7 4.3v10.8h-2.9zm-1.3-7.5l-1.7.1c-1.3 0-2.2.3-2.9.7s-.9 1.1-.9 1.9c0 1.2.7 1.9 2.1 1.9 1 0 1.8-.3 2.5-.9.6-.6.9-1.4.9-2.3v-1.4zM559.8 585.5c0 1.7-.6 2.9-1.7 3.8-1.2.9-2.9 1.3-5.2 1.3-1.2 0-2.2-.1-3-.2-.8-.2-1.6-.4-2.3-.7v-3.7c.8.4 1.7.7 2.8 1 1 .3 1.9.4 2.7.4 1.6 0 2.4-.5 2.4-1.4 0-.3-.1-.6-.3-.8-.2-.2-.6-.5-1.1-.7s-1.2-.6-2.1-1c-1.2-.5-2.2-1-2.7-1.4s-1-1-1.3-1.5c-.3-.6-.4-1.3-.4-2.1 0-1.4.6-2.6 1.7-3.3 1.1-.8 2.7-1.2 4.7-1.2s3.9.4 5.7 1.3l-1.3 3.2c-.8-.3-1.6-.6-2.3-.9-.7-.2-1.4-.3-2.2-.3-1.3 0-2 .4-2 1.1 0 .4.2.7.6 1 .4.3 1.3.7 2.8 1.3 1.3.5 2.2 1 2.8 1.4.6.4 1 1 1.3 1.5.2.4.4 1.1.4 1.9z"/></g><ellipse fill="#585558" cx="636.6" cy="560.9" rx="35.9" ry="35.8"/><ellipse fill="#C6C5C8" cx="636.6" cy="558.5" rx="35.9" ry="36"/><ellipse fill="#A9A9AC" cx="636.6" cy="558.5" rx="31.8" ry="31.9"/><ellipse fill="#fff" cx="636.6" cy="559.6" rx="31.8" ry="30.7"/><path fill="#C6C5C8" d="M636.5 495.5c-7.2 0-13 5.8-13 13s5.8 13 13 13 13-5.8 13-13-5.8-13-13-13zm-.1 24.3c-6.3 0-11.3-5.1-11.3-11.4 0-6.3 5.1-11.4 11.3-11.4 6.3 0 11.3 5.1 11.3 11.4 0 6.3-5 11.4-11.3 11.4z"/><path fill="#A9A9AC" d="M633.4 516.3h6v6h-6z"/><path fill="#C6C5C8" d="M629.7 511.1h13.4v5.2h-13.4z"/><ellipse fill="#706E72" cx="636.6" cy="558.8" rx="1.8" ry="1.8"/><ellipse fill="#9E9DA0" cx="636.6" cy="558.4" rx="1.8" ry="1.8"/><g><path fill="#A9A9AC" d="M606.573 531.133l4.03-4.03 3.253 3.253-4.03 4.03z"/><path fill="#C6C5C8" d="M602.635 529.289l6.081-6.081 3.253 3.253-6.081 6.081z"/></g><g><path fill="#A9A9AC" d="M663.192 534.45l-4.03-4.03 3.253-3.253 4.03 4.03z"/><path fill="#C6C5C8" d="M667.192 532.562l-6.081-6.081 3.253-3.253 6.081 6.081z"/></g><path stroke="#9F9EA2" stroke-width="6" stroke-miterlimit="10" fill="none" d="M636.4 558.9v-28.4"/><path fill="#F5F5F7" d="M267.6 352.5h-40.7v17.3c0 10.5-8.6 19.1-19.1 19.1h-2c-10.5 0-19.1-8.6-19.1-19.1v-17.3h-86v17.3c0 10.5-8.6 19.1-19.1 19.1h-2c-10.5 0-19.1-8.6-19.1-19.1v-17.3h-41.4c-10.5 0-19.1 8.6-19.1 19.1v30.5h286.7v-30.5c0-10.5-8.6-19.1-19.1-19.1z"/><path fill="#A4A4A8" d="M81.5 320.7h-2c-6 0-10.9 4.9-10.9 10.9v38.2c0 6 4.9 10.9 10.9 10.9h2c6 0 10.9-4.9 10.9-10.9v-38.2c0-6-4.9-10.9-10.9-10.9zM207.8 320.7h-2c-6 0-10.9 4.9-10.9 10.9v38.2c0 6 4.9 10.9 10.9 10.9h2c6 0 10.9-4.9 10.9-10.9v-38.2c0-6-4.9-10.9-10.9-10.9z"/><circle fill="#A4A4A8" cx="225.1" cy="552.8" r="68.3"/><path fill="#1A1A1A" d="M27.6 575.8c13.6 0 23.6-2.3 30.1-6.9 6.5-4.6 9.7-12 9.7-22.2 0-9.1-3.7-15.6-11.2-19.4-7.5-3.8-19.3-5.7-35.7-5.7h-14.7v-31.6h15c15.1 0 26.1-2 33.1-5.9 7-3.9 10.4-10.7 10.4-20.3 0-14.7-9.2-22.1-27.7-22.1-6.4 0-12.9 1.1-19.5 3.2-5.3 1.7-11 4.4-17.2 8.1v119l.8.2c9.1 2.4 18.1 3.6 26.9 3.6zM0 402.1v12.9c12-4.4 25.2-6.6 39.6-6.6 20.1 0 36 4.1 47.7 12.2 11.7 8.2 17.5 19.5 17.5 34.1 0 12.2-3.7 22.5-11 31-7.4 8.5-17.7 14.4-31 17.6v.8c15.7 2 27.6 6.7 35.7 14.3 8.1 7.6 12.1 17.8 12.1 30.7 0 18.7-6.8 33.3-20.4 43.7-4.7 3.6-10.2 6.6-16.3 9h92.4c-11.1-13.3-17.7-30.3-17.7-49 0-42.2 34.2-76.5 76.5-76.5 25.3 0 47.7 12.3 61.7 31.2v-105.4h-286.8z"/><path fill="#A4A4A8" d="M78.1 425.7h208.7v40h-208.7z"/><path fill="#F5F5F7" d="M110.5 549c0-12.9-4-23.1-12.1-30.7-8.1-7.6-20-12.4-35.7-14.3v-.8c13.3-3.2 23.6-9 31-17.6 7.4-8.5 11-18.8 11-31 0-14.5-5.8-25.9-17.5-34.1-11.7-8.2-27.6-12.2-47.7-12.2-14.4 0-27.6 2.2-39.6 6.6v37.900000000000006c6.2-3.7 11.9-6.4 17.2-8.1 6.6-2.1 13.1-3.2 19.5-3.2 18.4 0 27.7 7.4 27.7 22.1 0 9.6-3.5 16.3-10.4 20.3-7 3.9-18 5.9-33.1 5.9h-15v31.5h14.8c16.3 0 28.2 1.9 35.7 5.7 7.5 3.8 11.2 10.3 11.2 19.4 0 10.2-3.2 17.6-9.7 22.2-6.5 4.6-16.5 6.9-30.1 6.9-8.9 0-17.8-1.2-26.9-3.6l-.8-.2v10.6c0 10.5 8.6 19.1 19.1 19.1h54.8c6.1-2.4 11.6-5.3 16.3-9 13.5-10.1 20.3-24.6 20.3-43.4z"/><ellipse fill="#585558" cx="225.8" cy="560.9" rx="35.9" ry="35.8"/><ellipse fill="#C6C5C8" cx="225.8" cy="558.5" rx="35.9" ry="36"/><ellipse fill="#A9A9AC" cx="225.8" cy="558.5" rx="31.8" ry="31.9"/><ellipse fill="#fff" cx="225.8" cy="559.6" rx="31.8" ry="30.7"/><path fill="#C6C5C8" d="M225.7 495.5c-7.2 0-13 5.8-13 13s5.8 13 13 13 13-5.8 13-13-5.8-13-13-13zm-.1 24.3c-6.3 0-11.3-5.1-11.3-11.4 0-6.3 5.1-11.4 11.3-11.4 6.3 0 11.3 5.1 11.3 11.4.1 6.3-5 11.4-11.3 11.4z"/><path fill="#A9A9AC" d="M222.6 516.3h6v6h-6z"/><path fill="#C6C5C8" d="M218.9 511.1h13.4v5.2h-13.4z"/><ellipse fill="#706E72" cx="225.8" cy="558.8" rx="1.8" ry="1.8"/><ellipse fill="#9E9DA0" cx="225.8" cy="558.4" rx="1.8" ry="1.8"/><g><path fill="#A9A9AC" d="M195.791 531.154l4.03-4.03 3.253 3.253-4.03 4.03z"/><path fill="#C6C5C8" d="M191.846 529.303l6.081-6.081 3.253 3.253-6.081 6.081z"/></g><g><path fill="#A9A9AC" d="M252.421 534.468l-4.03-4.03 3.253-3.253 4.03 4.03z"/><path fill="#C6C5C8" d="M256.427 532.575l-6.081-6.081 3.253-3.253 6.081 6.081z"/></g><path stroke="#9F9EA2" stroke-width="6" stroke-miterlimit="10" fill="none" d="M225.6 558.9v-28.4"/><g fill="#A4A4A8"><path d="M97.8 570h-13.4v-25.9c0-3.1.1-6 .2-8.6-.8 1-1.8 2-3.1 3.1l-5.5 4.6-6.9-8.4 16.8-13.7h11.9v48.9zM144.1 545.6c0 8.6-1.4 15-4.3 19s-7.3 6-13.3 6c-5.8 0-10.2-2.1-13.2-6.3-3-4.2-4.4-10.4-4.4-18.7 0-8.7 1.4-15.1 4.3-19.1 2.9-4.1 7.3-6.1 13.3-6.1 5.8 0 10.2 2.1 13.2 6.3 2.9 4.3 4.4 10.6 4.4 18.9zm-22.2 0c0 5.5.3 9.3 1 11.4.7 2.1 1.8 3.1 3.5 3.1 1.6 0 2.8-1.1 3.5-3.2.7-2.1 1-5.9 1-11.3s-.3-9.2-1-11.4c-.7-2.2-1.8-3.3-3.5-3.3-1.6 0-2.8 1-3.5 3.1-.6 2.2-1 6.1-1 11.6z"/></g><g fill="#A4A4A8"><path d="M32.6 585.5c0 1.7-.6 2.9-1.7 3.8-1.2.9-2.9 1.3-5.2 1.3-1.2 0-2.2-.1-3-.2-.8-.2-1.6-.4-2.3-.7v-3.7c.8.4 1.7.7 2.8 1 1 .3 1.9.4 2.7.4 1.6 0 2.4-.5 2.4-1.4 0-.3-.1-.6-.3-.8-.2-.2-.6-.5-1.1-.7s-1.2-.6-2.1-1c-1.2-.5-2.2-1-2.7-1.4s-1-1-1.3-1.5c-.3-.6-.4-1.3-.4-2.1 0-1.4.6-2.6 1.7-3.3 1.1-.8 2.7-1.2 4.7-1.2s3.9.4 5.7 1.3l-1.3 3.2c-.8-.3-1.6-.6-2.3-.9-.7-.2-1.4-.3-2.2-.3-1.3 0-2 .4-2 1.1 0 .4.2.7.6 1 .4.3 1.3.7 2.8 1.3 1.3.5 2.2 1 2.8 1.4.6.4 1 1 1.3 1.5.3.4.4 1.1.4 1.9zM43.4 590.6c-2.6 0-4.6-.7-6.1-2.2-1.5-1.4-2.2-3.5-2.2-6.1 0-2.7.7-4.8 2-6.3 1.4-1.5 3.2-2.2 5.6-2.2 2.3 0 4.1.7 5.3 2 1.3 1.3 1.9 3.1 1.9 5.4v2.1h-10.3c0 1.3.4 2.2 1.1 2.9.7.7 1.7 1.1 2.9 1.1 1 0 1.9-.1 2.8-.3s1.8-.5 2.7-1v3.4c-.8.4-1.6.7-2.5.9-.8.2-1.9.3-3.2.3zm-.6-13.7c-.9 0-1.7.3-2.2.9-.5.6-.8 1.4-.9 2.5h6.2c0-1.1-.3-1.9-.9-2.5-.5-.6-1.3-.9-2.2-.9zM68.1 590.3h-4.4v-9.5c0-1.2-.2-2-.6-2.6-.4-.6-1-.9-1.8-.9-1.1 0-2 .4-2.5 1.2-.5.8-.8 2.2-.8 4.1v7.6h-4.4v-16.2h3.4l.6 2.1h.2c.4-.7 1.1-1.3 1.9-1.7s1.8-.6 2.8-.6c2.4 0 4.1.8 4.9 2.4h.4c.4-.8 1.1-1.3 1.9-1.8.8-.4 1.8-.6 2.9-.6 1.8 0 3.2.5 4.2 1.4.9.9 1.4 2.5 1.4 4.5v10.6h-4.4v-9.5c0-1.2-.2-2-.6-2.6-.4-.6-1-.9-1.8-.9-1.1 0-1.9.4-2.4 1.2-.5.8-.8 2-.8 3.7v8.1zM93.1 590.3l-.9-2.2h-.1c-.7.9-1.5 1.6-2.3 2-.8.4-1.8.5-3.1.5-1.6 0-2.8-.4-3.7-1.3-.9-.9-1.3-2.2-1.3-3.8 0-1.7.6-3 1.8-3.8 1.2-.8 3-1.3 5.4-1.4l2.8-.1v-.7c0-1.6-.8-2.5-2.5-2.5-1.3 0-2.8.4-4.6 1.2l-1.5-3c1.9-1 3.9-1.5 6.2-1.5 2.2 0 3.8.5 5 1.4 1.2.9 1.7 2.4 1.7 4.3v10.8h-2.9zm-1.3-7.5l-1.7.1c-1.3 0-2.2.3-2.9.7s-.9 1.1-.9 1.9c0 1.2.7 1.9 2.1 1.9 1 0 1.8-.3 2.5-.9.6-.6.9-1.4.9-2.3v-1.4zM115.7 590.3h-4.4v-9.5c0-1.2-.2-2-.6-2.6-.4-.6-1.1-.9-2-.9-1.2 0-2.1.4-2.7 1.2s-.8 2.2-.8 4.1v7.6h-4.4v-16.2h3.4l.6 2.1h.2c.5-.8 1.2-1.4 2-1.8.9-.4 1.8-.6 3-.6 1.9 0 3.3.5 4.3 1.5s1.5 2.5 1.5 4.4v10.7zM130.5 590.3l-.9-2.2h-.1c-.7.9-1.5 1.6-2.3 2-.8.4-1.8.5-3.1.5-1.6 0-2.8-.4-3.7-1.3-.9-.9-1.3-2.2-1.3-3.8 0-1.7.6-3 1.8-3.8 1.2-.8 3-1.3 5.4-1.4l2.8-.1v-.7c0-1.6-.8-2.5-2.5-2.5-1.3 0-2.8.4-4.6 1.2l-1.5-3c1.9-1 3.9-1.5 6.2-1.5 2.2 0 3.8.5 5 1.4 1.2.9 1.7 2.4 1.7 4.3v10.8h-2.9zm-1.3-7.5l-1.7.1c-1.3 0-2.2.3-2.9.7s-.9 1.1-.9 1.9c0 1.2.7 1.9 2.1 1.9 1 0 1.8-.3 2.5-.9.6-.6.9-1.4.9-2.3v-1.4zM149.5 585.5c0 1.7-.6 2.9-1.7 3.8-1.2.9-2.9 1.3-5.2 1.3-1.2 0-2.2-.1-3-.2-.8-.2-1.6-.4-2.3-.7v-3.7c.8.4 1.7.7 2.8 1 1 .3 1.9.4 2.7.4 1.6 0 2.4-.5 2.4-1.4 0-.3-.1-.6-.3-.8-.2-.2-.6-.5-1.1-.7s-1.2-.6-2.1-1c-1.2-.5-2.2-1-2.7-1.4s-1-1-1.3-1.5c-.3-.6-.4-1.3-.4-2.1 0-1.4.6-2.6 1.7-3.3 1.1-.8 2.7-1.2 4.7-1.2s3.9.4 5.7 1.3l-1.3 3.2c-.8-.3-1.6-.6-2.3-.9-.7-.2-1.4-.3-2.2-.3-1.3 0-2 .4-2 1.1 0 .4.2.7.6 1 .4.3 1.3.7 2.8 1.3 1.3.5 2.2 1 2.8 1.4.6.4 1 1 1.3 1.5.2.4.4 1.1.4 1.9z"/></g><g fill="#F5F5F7"><path d="M124.6 446.6h13.4v16.6c-3.5 1.5-7.5 2.2-11.9 2.2-5.8 0-10.2-1.6-13.2-4.9-3.1-3.3-4.6-7.9-4.6-13.8 0-3.7.8-7 2.3-9.9s3.7-5.1 6.5-6.6c2.8-1.6 6.1-2.3 9.8-2.3 4 0 7.5.7 10.7 2.2l-1 2.3c-3.2-1.5-6.4-2.2-9.8-2.2-4.8 0-8.6 1.5-11.4 4.5s-4.2 7-4.2 12c0 5.5 1.3 9.6 4 12.4 2.7 2.8 6.6 4.2 11.8 4.2 3.4 0 6.2-.5 8.6-1.4v-12.9h-10.9v-2.4zM148.7 437.9v17.6c0 2.7.6 4.7 1.7 6 1.1 1.2 2.9 1.9 5.3 1.9 3.2 0 5.6-.8 7.1-2.4s2.3-4.3 2.3-8v-15h2.4v27h-2.1l-.4-3.7h-.1c-1.8 2.8-4.9 4.2-9.4 4.2-6.2 0-9.3-3.3-9.3-9.9v-17.7h2.5zM174.8 433.7c1.2-1.3 2.4-2.7 3.6-4.3 1.2-1.5 2-2.7 2.4-3.5h3.5v.4c-.6.9-1.6 2-3.1 3.4s-3 2.9-4.8 4.3h-1.7v-.3zm4.4 31.3h-2.5v-27.1h2.5v27.1zM204.7 465l-.6-4.3h-.2c-1.4 1.7-2.8 3-4.2 3.7s-3.1 1.1-5.1 1.1c-2.7 0-4.7-.7-6.2-2-1.5-1.4-2.2-3.3-2.2-5.7 0-2.6 1.1-4.7 3.3-6.2 2.2-1.5 5.4-2.2 9.6-2.3l5.2-.1v-1.8c0-2.6-.5-4.5-1.6-5.8-1-1.3-2.7-2-5.1-2-2.5 0-5.1.7-7.8 2.1l-.9-2.1c3-1.4 5.9-2.1 8.8-2.1 3 0 5.2.8 6.7 2.3 1.5 1.5 2.2 4 2.2 7.2v18h-1.9zm-10-1.7c2.9 0 5.2-.8 6.8-2.5 1.7-1.7 2.5-4 2.5-6.9v-2.7l-4.7.2c-3.8.2-6.5.8-8.1 1.8-1.6 1-2.4 2.6-2.4 4.7 0 1.7.5 3 1.6 4 1 .9 2.4 1.4 4.3 1.4z"/></g></svg>